<svg width="341" height="500" viewBox="0 0 341 500" fill="none" xmlns="http://www.w3.org/2000/svg">
<path d="M46.1598 0C58.266 0 70.1215 1.5098 81.7233 4.53037C93.3247 7.04756 103.666 11.8308 112.745 18.8786C121.824 25.4231 129.139 34.4846 134.688 46.0632C140.237 57.6421 143.01 72.4939 143.01 90.6172V419.859H135.444C122.329 419.859 109.718 418.601 97.6122 416.083C85.506 413.566 74.6598 409.034 65.0757 402.49C55.9964 395.945 48.4295 386.884 42.3766 375.305C36.8281 363.726 34.054 348.623 34.054 329.997V0H46.1598Z" fill="#000D19"/>
<path fill-rule="evenodd" clip-rule="evenodd" d="M234.563 272.606C240.112 272.606 247.175 273.614 255.75 275.627C264.325 277.138 272.395 280.662 279.962 286.2C288.032 291.737 294.841 299.54 300.39 309.609C305.939 319.174 308.715 331.76 308.715 347.366C308.715 355.924 306.948 364.483 303.417 373.041C301.349 378.889 298.454 384.383 294.737 389.526V381.741C294.737 373.486 291.975 367.173 286.454 362.803C280.932 358.433 273.786 356.247 265.016 356.247H262.336V389.024C262.336 397.887 264.814 405.101 269.76 410.678C268.173 411.5 266.531 412.298 264.829 413.062C258.962 415.836 252.527 417.756 245.526 418.832V382.225C245.689 381.254 245.933 380.364 246.258 379.555C246.745 378.584 247.394 377.774 248.206 377.127C249.18 376.48 250.479 376.156 252.102 376.156C253.076 376.156 254.052 376.398 255.026 376.883C256 377.369 256.652 377.937 256.977 378.584V376.399C256.977 369.116 255.19 363.855 251.617 360.618C248.044 357.381 243.578 355.761 238.218 355.76C233.021 355.76 228.797 356.57 225.549 358.189C222.301 359.808 219.702 361.912 217.753 364.502C215.967 367.091 214.75 370.167 214.101 373.727C213.451 377.126 213.125 380.608 213.125 384.169V396.064C213.125 403.834 215.724 409.743 220.921 413.79C225.388 417.163 230.871 419.123 237.369 419.685C235.462 419.796 233.518 419.859 231.536 419.859H228.509C214.89 419.859 203.54 417.593 194.46 413.062C185.381 408.028 177.814 402.24 171.761 395.696C166.213 388.648 162.178 381.347 159.656 373.796C157.638 365.741 156.629 358.692 156.629 352.651V342.078C157.133 338.555 158.142 334.778 159.656 330.751C166.213 336.792 174.285 339.814 183.869 339.814C191.435 339.814 197.741 337.548 202.785 333.018C207.829 327.983 210.352 320.683 210.352 311.118V274.116C211.362 273.613 214.64 273.361 220.187 273.361C226.24 272.857 231.032 272.606 234.563 272.606ZM216.536 296.519V325.896C216.536 335.123 219.216 342.166 224.576 347.022C230.098 351.877 238.219 354.305 248.937 354.305V322.013C248.937 313.758 246.176 307.445 240.654 303.075C235.133 298.705 227.986 296.519 219.216 296.519H216.536ZM266.477 296.519V324.198C266.477 327.435 266.072 329.863 265.26 331.481C264.61 333.1 263.066 333.91 260.629 333.91C259.168 333.91 258.111 333.747 257.462 333.423C256.975 332.938 256.244 332.29 255.27 331.481V333.667C255.27 339.655 256.975 344.592 260.386 348.477C263.958 352.362 268.669 354.305 274.516 354.305C279.713 354.305 283.854 353.413 286.939 351.633C290.188 349.853 292.707 347.507 294.493 344.593C296.28 341.68 297.415 338.442 297.902 334.881C298.552 331.32 298.878 327.677 298.878 323.954V321.042C298.715 317.319 297.822 314 296.198 311.086C294.574 308.011 292.461 305.422 289.863 303.318C287.264 301.052 284.18 299.351 280.607 298.218C277.196 297.085 273.542 296.519 269.644 296.519H266.477Z" fill="#000D19"/>
<path d="M0 456.861H7.76311V484.026H24.5832V490.339H0V456.861Z" fill="#000D19"/>
<path d="M41.1929 484.744C42.5346 484.744 43.7167 484.552 44.739 484.17C45.7932 483.755 46.7676 483.118 47.6621 482.257L51.6395 486.561C49.2116 489.335 45.6654 490.722 41.0012 490.722C38.094 490.722 35.5223 490.164 33.286 489.048C31.0497 487.9 29.3246 486.322 28.1106 484.313C26.8966 482.304 26.2896 480.025 26.2896 477.474C26.2896 474.955 26.8806 472.691 28.0627 470.683C29.2766 468.642 30.9219 467.064 32.9985 465.948C35.107 464.8 37.471 464.226 40.0907 464.226C42.5506 464.226 44.7869 464.752 46.7996 465.805C48.8122 466.825 50.4096 468.323 51.5916 470.3C52.8056 472.245 53.4126 474.557 53.4126 477.235L34.3402 480.918C34.8833 482.193 35.7299 483.149 36.88 483.787C38.0621 484.425 39.4997 484.744 41.1929 484.744ZM40.0907 469.87C38.2058 469.87 36.6724 470.476 35.4903 471.687C34.3083 472.899 33.6853 474.573 33.6214 476.709L46.1766 474.27C45.8252 472.931 45.1064 471.863 44.0202 471.065C42.934 470.268 41.6241 469.87 40.0907 469.87Z" fill="#000D19"/>
<path d="M74.1243 490.339L68.4697 482.448L62.6234 490.339H54.4769L64.3965 477.378L54.8124 464.609H63.1985L68.6614 472.118L74.2681 464.609H82.2229L72.6388 477.187L82.6062 490.339H74.1243Z" fill="#000D19"/>
<path d="M116.387 490.913C112.968 490.913 109.87 490.18 107.09 488.713C104.343 487.215 102.17 485.158 100.573 482.544C99.0076 479.897 98.2249 476.916 98.2249 473.6C98.2249 470.284 99.0076 467.319 100.573 464.705C102.17 462.058 104.343 460.002 107.09 458.535C109.87 457.037 112.984 456.287 116.435 456.287C119.342 456.287 121.962 456.797 124.294 457.818C126.658 458.838 128.638 460.305 130.236 462.218L125.252 466.809C122.984 464.194 120.172 462.887 116.818 462.887C114.742 462.887 112.889 463.35 111.259 464.274C109.63 465.167 108.352 466.426 107.426 468.052C106.531 469.678 106.084 471.528 106.084 473.6C106.084 475.673 106.531 477.522 107.426 479.148C108.352 480.774 109.63 482.049 111.259 482.974C112.889 483.867 114.742 484.313 116.818 484.313C120.172 484.313 122.984 482.99 125.252 480.344L130.236 484.935C128.638 486.88 126.658 488.362 124.294 489.383C121.93 490.403 119.294 490.913 116.387 490.913Z" fill="#000D19"/>
<path d="M146.33 490.722C143.614 490.722 141.17 490.164 138.998 489.048C136.857 487.9 135.18 486.322 133.966 484.313C132.752 482.304 132.145 480.025 132.145 477.474C132.145 474.923 132.752 472.644 133.966 470.635C135.18 468.626 136.857 467.064 138.998 465.948C141.17 464.8 143.614 464.226 146.33 464.226C149.045 464.226 151.473 464.8 153.613 465.948C155.754 467.064 157.431 468.626 158.645 470.635C159.859 472.644 160.466 474.923 160.466 477.474C160.466 480.025 159.859 482.304 158.645 484.313C157.431 486.322 155.754 487.9 153.613 489.048C151.473 490.164 149.045 490.722 146.33 490.722ZM146.33 484.6C148.246 484.6 149.812 483.962 151.026 482.687C152.272 481.38 152.895 479.642 152.895 477.474C152.895 475.306 152.272 473.584 151.026 472.309C149.812 471.002 148.246 470.348 146.33 470.348C144.413 470.348 142.831 471.002 141.585 472.309C140.34 473.584 139.717 475.306 139.717 477.474C139.717 479.642 140.34 481.38 141.585 482.687C142.831 483.962 144.413 484.6 146.33 484.6Z" fill="#000D19"/>
<path d="M198.48 464.226C201.707 464.226 204.263 465.183 206.147 467.096C208.064 468.977 209.023 471.815 209.023 475.609V490.339H201.547V476.757C201.547 474.716 201.116 473.202 200.253 472.213C199.423 471.193 198.225 470.683 196.659 470.683C194.902 470.683 193.512 471.257 192.49 472.405C191.468 473.52 190.957 475.194 190.957 477.426V490.339H183.481V476.757C183.481 472.707 181.852 470.683 178.593 470.683C176.868 470.683 175.494 471.257 174.472 472.405C173.45 473.52 172.939 475.194 172.939 477.426V490.339H165.463V464.609H172.603V467.574C173.561 466.49 174.728 465.661 176.101 465.087C177.507 464.513 179.04 464.226 180.702 464.226C182.523 464.226 184.168 464.593 185.637 465.326C187.107 466.028 188.289 467.064 189.184 468.435C190.238 467.096 191.564 466.06 193.161 465.326C194.79 464.593 196.563 464.226 198.48 464.226Z" fill="#000D19"/>
<path d="M230.962 464.226C233.358 464.226 235.53 464.784 237.479 465.9C239.46 466.984 241.009 468.531 242.127 470.539C243.246 472.516 243.805 474.828 243.805 477.474C243.805 480.12 243.246 482.448 242.127 484.457C241.009 486.433 239.46 487.98 237.479 489.096C235.53 490.18 233.358 490.722 230.962 490.722C227.671 490.722 225.084 489.686 223.199 487.613V499.617H215.723V464.609H222.863V467.574C224.716 465.342 227.416 464.226 230.962 464.226ZM229.668 484.6C231.585 484.6 233.15 483.962 234.364 482.687C235.61 481.38 236.233 479.642 236.233 477.474C236.233 475.306 235.61 473.584 234.364 472.309C233.15 471.002 231.585 470.348 229.668 470.348C227.751 470.348 226.17 471.002 224.924 472.309C223.71 473.584 223.103 475.306 223.103 477.474C223.103 479.642 223.71 481.38 224.924 482.687C226.17 483.962 227.751 484.6 229.668 484.6Z" fill="#000D19"/>
<path d="M274.973 464.609V490.339H267.833V487.374C265.98 489.606 263.297 490.722 259.783 490.722C257.355 490.722 255.15 490.18 253.17 489.096C251.221 488.012 249.687 486.465 248.569 484.457C247.451 482.448 246.892 480.12 246.892 477.474C246.892 474.828 247.451 472.5 248.569 470.492C249.687 468.483 251.221 466.936 253.17 465.852C255.15 464.768 257.355 464.226 259.783 464.226C263.073 464.226 265.645 465.263 267.498 467.335V464.609H274.973ZM261.077 484.6C262.961 484.6 264.527 483.962 265.773 482.687C267.019 481.38 267.642 479.642 267.642 477.474C267.642 475.306 267.019 473.584 265.773 472.309C264.527 471.002 262.961 470.348 261.077 470.348C259.16 470.348 257.578 471.002 256.332 472.309C255.087 473.584 254.464 475.306 254.464 477.474C254.464 479.642 255.087 481.38 256.332 482.687C257.578 483.962 259.16 484.6 261.077 484.6Z" fill="#000D19"/>
<path d="M297.565 464.226C300.759 464.226 303.331 465.183 305.28 467.096C307.261 469.009 308.251 471.847 308.251 475.609V490.339H300.775V476.757C300.775 474.716 300.328 473.202 299.434 472.213C298.539 471.193 297.245 470.683 295.552 470.683C293.667 470.683 292.166 471.273 291.047 472.452C289.929 473.6 289.37 475.322 289.37 477.618V490.339H281.895V464.609H289.035V467.622C290.025 466.538 291.255 465.709 292.725 465.135C294.194 464.529 295.808 464.226 297.565 464.226Z" fill="#000D19"/>
<path d="M341 464.609V486.035C341 490.754 339.802 494.261 337.406 496.557C335.01 498.852 331.528 500 326.959 500C324.531 500 322.231 499.697 320.059 499.091C317.918 498.486 316.113 497.609 314.644 496.461L317.615 491.104C318.701 491.997 320.027 492.699 321.592 493.209C323.158 493.719 324.739 493.974 326.336 493.974C328.828 493.974 330.649 493.4 331.799 492.252C332.949 491.104 333.524 489.351 333.524 486.991V486.131C332.566 487.087 331.432 487.82 330.122 488.331C328.812 488.841 327.407 489.096 325.905 489.096C322.519 489.096 319.835 488.139 317.854 486.226C315.874 484.281 314.883 481.38 314.883 477.522V464.609H322.359V476.422C322.359 480.599 324.1 482.687 327.582 482.687C329.371 482.687 330.809 482.113 331.895 480.965C332.981 479.786 333.524 478.048 333.524 475.752V464.609H341Z" fill="#000D19"/>
</svg>
